<?xml version="1.0" encoding="UTF-8" standalone="no"?><!-- Generator: Gravit.io --><svg xmlns="http://www.w3.org/2000/svg" xmlns:xlink="http://www.w3.org/1999/xlink" style="isolation:isolate" viewBox="0 0 200 200" width="200pt" height="200pt"><defs><clipPath id="_clipPath_mnPr5q3x7DLnF2TwbP2MJ3pjZhMQ19hl"><rect width="200" height="200"/></clipPath></defs><g clip-path="url(#_clipPath_mnPr5q3x7DLnF2TwbP2MJ3pjZhMQ19hl)"><path d=" M 48.981 175.182 L 48.981 159.182 L 48.981 133.982 L 48.981 103.382 L 48.981 72.182 Q 48.981 57.182 48.881 44.582 Q 48.781 31.982 48.781 24.982 Q 48.781 20.182 51.081 16.982 Q 53.381 13.782 56.881 12.682 Q 60.381 11.582 64.581 12.682 Q 68.781 13.782 72.381 17.382 Q 79.781 24.982 88.381 33.282 Q 96.981 41.582 106.081 49.982 Q 115.181 58.382 124.481 66.782 Q 133.781 75.182 142.381 82.982 Q 146.181 86.382 148.081 91.382 Q 149.981 96.382 149.781 101.782 Q 149.581 107.182 147.481 112.382 Q 145.381 117.582 141.181 121.182 Q 133.381 127.982 125.681 134.882 Q 117.981 141.782 109.881 149.082 Q 101.781 156.382 92.881 164.382 Q 83.981 172.382 73.981 181.382 Q 69.581 185.382 65.081 186.682 Q 60.581 187.982 56.981 187.082 Q 53.381 186.182 51.181 183.082 Q 48.981 179.982 48.981 175.182 L 48.981 175.182 Z " fill="rgb(0,0,0)"/></g></svg>